<svg version="1.1" xmlns="http://www.w3.org/2000/svg" xmlns:xlink="http://www.w3.org/1999/xlink" width="48" height="48"><defs><linearGradient x1="6.11348" y1="6.11348" x2="61.9517" y2="61.9517" gradientUnits="userSpaceOnUse" id="color-1"><stop offset="0" stop-color="#000000" stop-opacity="0.3"></stop><stop offset="1" stop-color="#000000" stop-opacity="0"></stop></linearGradient><filter id="dropshadow-base"><feColorMatrix type="matrix" values="0 0 0 0 0  0 0 0 0 0  0 0 0 0 0  0 0 0 .8 0"></feColorMatrix> <feOffset dx="0" dy="1"></feOffset> <feGaussianBlur stdDeviation="1"></feGaussianBlur> <feComposite in="SourceGraphic"></feComposite></filter><filter id="dropshadow-banner" x="-10%" y="-10%" width="120%" height="130%"><feColorMatrix type="matrix" values="0 0 0 0 0  0 0 0 0 0  0 0 0 0 0  0 0 0 .4 0"></feColorMatrix> <feOffset dx="0" dy="1"></feOffset> <feGaussianBlur stdDeviation="0.5"></feGaussianBlur> <feComposite in="SourceGraphic"></feComposite></filter></defs><g fill="none" fill-rule="nonzero" stroke="none" stroke-width="none" stroke-linecap="butt" stroke-linejoin="miter" stroke-miterlimit="10" stroke-dasharray="" stroke-dashoffset="0" font-family="none" font-weight="none" font-size="none" text-anchor="none" style="mix-blend-mode: normal"><path d="M7,43c-1.10457,0 -2,-0.89543 -2,-2v-34c0,-1.10457 0.89543,-2 2,-2h34c1.10457,0 2,0.89543 2,2v34c0,1.10457 -0.89543,2 -2,2z" id="base 1 5 1 1" fill="#00bcd4" stroke-width="1"></path><path d="M26.17866,41.88652h1.79611l-1.79611,-1.79611zM7.27734,40.72266c-0.71919,-0.71919 -1.16386,-1.71288 -1.16386,-2.81092v-27.82348c0,-2.19607 1.77871,-3.97478 3.97478,-3.97478h27.82348c1.09804,0 2.09173,0.44468 2.81092,1.16386l2.27734,2.27734v31.44531c0,1.10457 -0.89543,2 -2,2h-31.44531z" fill="url(#color-1)" stroke-width="1"></path><path d="M37.91174,6.11348h-27.82348c-2.19607,0 -3.97478,1.77872 -3.97478,3.97478v27.82348c0,2.19607 1.77872,3.97478 3.97478,3.97478h27.82348c2.19607,0 3.97478,-1.77872 3.97478,-3.97478v-27.82348c0,-2.19607 -1.77872,-3.97478 -3.97478,-3.97478zM20.02522,33.93696l-9.93696,-9.93696l2.81216,-2.81216l7.1248,7.1248l15.07436,-15.07436l2.81216,2.81216z" fill="none" stroke-width="0"></path><path d="M41.88652,10.08826v27.82348c0,2.19607 -1.77872,3.97478 -3.97478,3.97478h-27.82348c-2.19607,0 -3.97478,-1.77872 -3.97478,-3.97478v-27.82348c0,-2.19607 1.77872,-3.97478 3.97478,-3.97478h27.82348c2.19607,0 3.97478,1.77872 3.97478,3.97478zM37.91174,16.05044l-2.81216,-2.81216l-15.07436,15.07436l-7.1248,-7.1248l-2.81216,2.81216l9.93696,9.93696z" fill="#ffffff" stroke-width="0"></path><path d="M2,24c0,-12.15026 9.84974,-22 22,-22c12.15026,0 22,9.84974 22,22c0,12.15026 -9.84974,22 -22,22c-12.15026,0 -22,-9.84974 -22,-22z" id="base 1 1 1" fill="none" stroke-width="1"></path><g fill="#000000" stroke-width="1" font-family="Roboto, sans-serif" font-weight="normal" font-size="14" text-anchor="start"></g><rect x="2" y="2" width="44" height="22" fill="none" stroke-width="1"></rect><path d="M2,24v-22h44v22z" fill="none" stroke-width="1"></path><path d="M2,24v-22h44v22z" fill="none" stroke-width="1"></path><path d="M2,24v-22h44v22z" fill="none" stroke-width="1"></path><path d="M2,24v-22h44v22z" fill="none" stroke-width="1"></path></g></svg>