<svg version="1.1" xmlns="http://www.w3.org/2000/svg" xmlns:xlink="http://www.w3.org/1999/xlink" width="48" height="48"><defs><linearGradient x1="14.22989" y1="14.22989" x2="44.73026" y2="44.73026" gradientUnits="userSpaceOnUse" id="color-1"><stop offset="0" stop-color="#000000" stop-opacity="0.3"></stop><stop offset="1" stop-color="#000000" stop-opacity="0"></stop></linearGradient><filter id="dropshadow-base"><feColorMatrix type="matrix" values="0 0 0 0 0  0 0 0 0 0  0 0 0 0 0  0 0 0 .8 0"></feColorMatrix> <feOffset dx="0" dy="1"></feOffset> <feGaussianBlur stdDeviation="1"></feGaussianBlur> <feComposite in="SourceGraphic"></feComposite></filter><filter id="dropshadow-banner" x="-10%" y="-10%" width="120%" height="130%"><feColorMatrix type="matrix" values="0 0 0 0 0  0 0 0 0 0  0 0 0 0 0  0 0 0 .4 0"></feColorMatrix> <feOffset dx="0" dy="1"></feOffset> <feGaussianBlur stdDeviation="0.5"></feGaussianBlur> <feComposite in="SourceGraphic"></feComposite></filter></defs><g fill="none" fill-rule="nonzero" stroke="none" stroke-width="none" stroke-linecap="butt" stroke-linejoin="miter" stroke-miterlimit="10" stroke-dasharray="" stroke-dashoffset="0" font-family="none" font-weight="none" font-size="none" text-anchor="none" style="mix-blend-mode: normal"><path d="M7,43c-1.10457,0 -2,-0.89543 -2,-2v-34c0,-1.10457 0.89543,-2 2,-2h34c1.10457,0 2,0.89543 2,2v34c0,1.10457 -0.89543,2 -2,2z" id="base 1 5 1 1" fill="#00bcd4" stroke-width="1"></path><path d="M25.19005,33.77011l0.98109,0l-0.98109,-0.98109zM14.86562,33.13438c-0.39284,-0.39284 -0.63573,-0.93562 -0.63573,-1.5354v-15.19795c0,-1.19955 0.97158,-2.17113 2.17113,-2.17113h15.19795c0.59978,0 1.14256,0.24289 1.5354,0.63573l9.86562,9.86562v16.26875c0,1.10457 -0.89543,2 -2,2l-16.26875,0z" fill="url(#color-1)" stroke-width="1"></path><path d="M31.59897,14.22989h-15.19795c-1.19955,0 -2.17114,0.97158 -2.17114,2.17114v15.19795c0,1.19955 0.97158,2.17114 2.17114,2.17114h15.19795c1.19955,0 2.17114,-0.97158 2.17114,-2.17114v-15.19795c0,-1.19955 -0.97158,-2.17114 -2.17114,-2.17114zM21.82886,29.42784l-5.42784,-5.42784l1.53608,-1.53608l3.89176,3.89176l8.23403,-8.23403l1.53608,1.53608z" fill="none" stroke-width="0"></path><path d="M33.77011,16.40103v15.19795c0,1.19955 -0.97158,2.17114 -2.17114,2.17114h-15.19795c-1.19955,0 -2.17114,-0.97158 -2.17114,-2.17114v-15.19795c0,-1.19955 0.97158,-2.17114 2.17114,-2.17114h15.19795c1.19955,0 2.17114,0.97158 2.17114,2.17114zM31.59897,19.65773l-1.53608,-1.53608l-8.23403,8.23403l-3.89176,-3.89176l-1.53608,1.53608l5.42784,5.42784z" fill="#ffffff" stroke-width="0"></path><path d="M2,24c0,-12.15026 9.84974,-22 22,-22c12.15026,0 22,9.84974 22,22c0,12.15026 -9.84974,22 -22,22c-12.15026,0 -22,-9.84974 -22,-22z" id="base 1 1 1" fill="none" stroke-width="1"></path><g fill="#000000" stroke-width="1" font-family="Roboto, sans-serif" font-weight="normal" font-size="14" text-anchor="start"></g><rect x="2" y="2" width="44" height="22" fill="none" stroke-width="1"></rect><path d="M2,24v-22h44v22z" fill="none" stroke-width="1"></path><path d="M2,24v-22h44v22z" fill="none" stroke-width="1"></path><path d="M2,24v-22h44v22z" fill="none" stroke-width="1"></path><path d="M2,24v-22h44v22z" fill="none" stroke-width="1"></path></g></svg>